<?xml version="1.0" encoding="utf-8"?>
<!-- Generator: Adobe Illustrator 23.0.0, SVG Export Plug-In . SVG Version: 6.00 Build 0)  -->
<svg version="1.1" id="Layer_1" xmlns="http://www.w3.org/2000/svg" xmlns:xlink="http://www.w3.org/1999/xlink" x="0px" y="0px"
	 viewBox="0 0 455 455" style="enable-background:new 0 0 455 455;" xml:space="preserve">
<style type="text/css">
	.st0{fill-rule:evenodd;clip-rule:evenodd;fill:#333333;}
</style>
<g>
	<path class="st0" d="M0,0v455h455V0H0z M379.5,302c-3.9,16.8-17.6,29.1-34.1,31c-39,4.4-78.6,4.4-118,4.4c-39.4,0-78.9,0-117.9-4.4
		c-16.5-1.8-30.2-14.2-34-31C70,278.1,70,252.1,70,227.5s0.1-50.6,5.6-74.4c3.8-16.8,17.5-29.1,34-31c39.1-4.4,78.6-4.4,118-4.4
		c39.4,0,78.9,0,117.9,4.4c16.5,1.8,30.2,14.2,34.1,31c5.5,23.8,5.4,49.9,5.4,74.4C385,252.1,385,278.1,379.5,302z"/>
	<path class="st0" d="M186.9,276.4c33.5-17.4,66.6-34.6,100.1-51.9c-33.6-17.5-66.8-34.8-100.1-52.2L186.9,276.4L186.9,276.4z"/>
</g>
</svg>
